<svg width="80" height="79" xmlns="http://www.w3.org/2000/svg" xmlns:xlink="http://www.w3.org/1999/xlink" overflow="hidden"><g transform="translate(-277 -161)"><path d="M282 200.5C282 180.894 297.67 165 317 165 336.33 165 352 180.894 352 200.5 352 220.106 336.33 236 317 236 297.67 236 282 220.106 282 200.5Z" stroke="#D5E2EA" stroke-width="8" stroke-miterlimit="8" fill="#FF8899" fill-rule="evenodd"/><path d="M288 195.5C288 181.969 298.969 171 312.5 171 326.031 171 337 181.969 337 195.5 337 209.031 326.031 220 312.5 220 298.969 220 288 209.031 288 195.5Z" fill="#FFFFFF" fill-rule="evenodd"/><path d="M300 202C300 192.611 307.611 185 317 185 326.389 185 334 192.611 334 202 334 211.389 326.389 219 317 219 307.611 219 300 211.389 300 202Z" fill="#A2A9B0" fill-rule="evenodd"/></g></svg>